<?xml version="1.0" encoding="UTF-8"?>
<!-- Generator: visioncortex VTracer 0.6.4 -->
<svg version="1.1" xmlns="http://www.w3.org/2000/svg" width="250" height="250">
<path d="M0 0 C82.5 0 165 0 250 0 C250 82.5 250 165 250 250 C167.5 250 85 250 0 250 C0 167.5 0 85 0 0 Z " fill="#000000" transform="translate(0,0)"/>
<path d="M0 0 C19.4 4.35 38.54 9.64 57.59 15.3 C66.66 17.96 75.8 20.31 84.95 22.64 C93.99 24.94 102.97 27.36 111.88 30.09 C114.58 30.88 117.23 31.5 120 32 C118.42 39.42 116.56 46.76 114.65 54.1 C114.13 56.1 113.61 58.1 113.1 60.1 C111.07 67.96 108.99 75.8 106.9 83.63 C106.15 86.43 105.42 89.22 104.69 92.02 C102.59 100.13 100.38 108.19 97.95 116.21 C95.73 123.7 93.89 131.29 92.05 138.89 C91.82 139.87 91.58 140.85 91.33 141.86 C91.12 142.73 90.91 143.6 90.7 144.5 C89.97 147.09 89.04 149.52 88 152 C80.58 150.42 73.24 148.56 65.9 146.65 C63.9 146.13 61.9 145.61 59.9 145.1 C46.55 141.65 33.24 138.1 20 134.25 C8.1 130.81 -3.86 127.65 -15.87 124.61 C-17.11 124.3 -18.34 123.99 -19.62 123.66 C-20.71 123.39 -21.8 123.12 -22.92 122.83 C-25.99 122 -28.99 121.04 -32 120 C-27.73 100.98 -22.53 82.2 -17.13 63.47 C-13.95 52.42 -11.1 41.29 -8.24 30.16 C-7.78 28.37 -7.78 28.37 -7.3 26.54 C-6.7 24.2 -6.1 21.86 -5.5 19.51 C-3.81 12.96 -2.01 6.46 0 0 Z " fill="#BEC7CE" transform="translate(81,49)"/>
<path d="M0 0 C7.56 0.86 14.9 3.36 22.12 5.62 C23.18 5.95 24.23 6.27 25.31 6.61 C27.88 7.4 30.44 8.2 33 9 C32.3 13.63 31.28 18.15 30.12 22.69 C29.95 23.38 29.77 24.08 29.59 24.8 C28.13 30.55 26.6 36.28 25 42 C17.93 41.38 11.42 39.57 4.62 37.56 C3.53 37.25 2.44 36.94 1.32 36.62 C-0.24 36.16 -0.24 36.16 -1.84 35.69 C-2.78 35.41 -3.72 35.14 -4.7 34.85 C-7 34 -7 34 -9 32 C-8.82 30.11 -8.82 30.11 -8.21 27.82 C-7.99 26.98 -7.77 26.13 -7.55 25.27 C-7.31 24.38 -7.06 23.48 -6.81 22.56 C-6.58 21.66 -6.34 20.76 -6.09 19.83 C-5.41 17.22 -4.7 14.61 -4 12 C-3.68 10.77 -3.36 9.54 -3.03 8.27 C-1.16 1.16 -1.16 1.16 0 0 Z " fill="#030303" transform="translate(113,104)"/>
<path d="M0 0 C4.57 -0.19 8.3 0.44 12.69 1.69 C14.01 2.06 15.34 2.43 16.66 2.79 C17.36 2.99 18.06 3.19 18.78 3.39 C21.9 4.25 25.04 5.06 28.18 5.87 C35.42 7.74 42.58 9.76 49.71 12.02 C56.08 13.92 62.54 15.44 69 17 C67.93 22.11 66.77 27.07 65 32 C64.34 31.34 63.68 30.68 63 30 C63.38 27.56 63.38 27.56 64 25 C64.22 22.07 64.22 22.07 63 20 C60.41 19.53 60.41 19.53 57.44 19.38 C55.92 19.26 55.92 19.26 54.37 19.15 C53.2 19.07 53.2 19.07 52 19 C52 18.34 52 17.68 52 17 C49.69 17 47.38 17 45 17 C45 16.34 45 15.68 45 15 C43.35 14.85 43.35 14.85 41.68 14.69 C36.34 14.03 31.32 12.49 26.19 10.94 C24.33 10.38 22.47 9.83 20.61 9.28 C19.79 9.03 18.98 8.79 18.14 8.53 C15.88 7.88 15.88 7.88 13 8 C13 7.34 13 6.68 13 6 C11.89 5.88 10.77 5.75 9.62 5.62 C6 5 6 5 4 3 C3.01 3.5 3.01 3.5 2 4 C1.34 2.68 0.68 1.36 0 0 Z " fill="#E5E8E9" transform="translate(132,64)"/>
<path d="M0 0 C0.99 0 1.98 0 3 0 C1.88 5.33 0.6 10.59 -0.82 15.85 C-2.26 21.2 -3.67 26.56 -5.04 31.93 C-5.2 32.58 -5.37 33.24 -5.54 33.91 C-6.22 36.57 -6.9 39.24 -7.58 41.9 C-9.47 49.36 -11.44 56.74 -14 64 C-23 62 -23 62 -32 60 C-30.51 59.5 -30.51 59.5 -29 59 C-29 58.34 -29 57.68 -29 57 C-28.1 56.82 -27.19 56.64 -26.26 56.45 C-25.08 56.2 -23.9 55.95 -22.69 55.69 C-21.52 55.44 -20.34 55.2 -19.14 54.95 C-16.07 54.02 -14.8 53.6 -13 51 C-12.28 48.97 -12.28 48.97 -11.94 46.75 C-11.01 42.04 -9.81 37.47 -8.31 32.91 C-6.41 26.96 -5.21 20.98 -4.13 14.85 C-3.19 9.68 -1.84 4.92 0 0 Z " fill="#94A2AC" transform="translate(183,137)"/>
<path d="M0 0 C2.07 5.76 -0.05 11.49 -2 17 C-2.33 18.2 -2.66 19.39 -3 20.62 C-3.8 23.32 -4.64 25.56 -6 28 C-6.99 28 -7.98 28 -9 28 C-9.33 28.66 -9.66 29.32 -10 30 C-9.67 23.92 -8.42 18.38 -6.69 12.56 C-6.49 11.85 -6.29 11.14 -6.08 10.41 C-4.51 5.35 -4.51 5.35 -1.83 3.53 C-0.93 3.27 -0.93 3.27 0 3 C0 2.01 0 1.02 0 0 Z " fill="#DFE3E5" transform="translate(71,98)"/>
<path d="M0 0 C1.42 2.85 0.51 4.92 0 8 C0.33 8.66 0.66 9.32 1 10 C2.58 10.24 4.16 10.47 5.75 10.65 C10.25 11.35 14.62 12.74 19 14 C16.8 15.33 15.51 16.04 12.91 15.82 C12.18 15.61 11.46 15.41 10.71 15.21 C9.91 14.99 9.12 14.77 8.3 14.54 C7.48 14.3 6.66 14.06 5.81 13.81 C4.98 13.59 4.15 13.37 3.29 13.14 C-1.29 11.84 -1.29 11.84 -3 11 C-4 8 -4 8 -3.22 5.96 C-2.84 5.25 -2.46 4.54 -2.06 3.81 C-1.68 3.1 -1.3 2.38 -0.91 1.64 C-0.61 1.1 -0.31 0.56 0 0 Z " fill="#939FA8" transform="translate(56,159)"/>
<path d="M0 0 C0.99 0.66 1.98 1.32 3 2 C3.71 7.09 2.34 10.58 0 15 C-0.99 15.33 -1.98 15.66 -3 16 C-3.38 10.07 -2.11 5.53 0 0 Z " fill="#F1F2F3" transform="translate(73,81)"/>
<path d="M0 0 C5.94 1.48 5.94 1.48 12 3 C9 5 9 5 7 5 C7 4.34 7 3.68 7 3 C4.51 3.59 4.51 3.59 2 5 C0.75 7.61 0.75 7.61 0.19 10.62 C-0.05 11.63 -0.28 12.63 -0.52 13.66 C-0.68 14.43 -0.84 15.21 -1 16 C-1.66 16 -2.32 16 -3 16 C-2.58 10.4 -2.08 5.28 0 0 Z " fill="#E9E9E9" transform="translate(81,49)"/>
<path d="M0 0 C0.33 0 0.66 0 1 0 C1.19 5.53 0.75 9.76 -1 15 C-1.66 15 -2.32 15 -3 15 C-2.22 4.44 -2.22 4.44 0 0 Z " fill="#D5DBDF" transform="translate(143,126)"/>
<path d="M0 0 C0.33 0 0.66 0 1 0 C1.17 4.92 1.25 8.5 -1 13 C-1.66 12.67 -2.32 12.34 -3 12 C-3.35 7.12 -2.42 4.23 0 0 Z " fill="#D6DBDF" transform="translate(147,113)"/>
<path d="M0 0 C1.45 2.34 2.04 3.58 1.76 6.36 C1.55 7.15 1.34 7.94 1.12 8.75 C0.92 9.55 0.72 10.35 0.51 11.17 C0.34 11.78 0.17 12.38 0 13 C-1.32 12.67 -2.64 12.34 -4 12 C-3.52 10.37 -3.04 8.75 -2.56 7.12 C-2.3 6.22 -2.03 5.32 -1.75 4.38 C-1 2 -1 2 0 0 Z " fill="#A5B1BA" transform="translate(187,123)"/>
<path d="M0 0 C0.99 0.33 1.98 0.66 3 1 C2.34 4.3 1.68 7.6 1 11 C0.67 10.34 0.34 9.68 0 9 C-0.66 9 -1.32 9 -2 9 C-1.34 6.03 -0.68 3.06 0 0 Z " fill="#ACB5BC" transform="translate(190,110)"/>
<path d="M0 0 C1.42 -0.03 2.83 -0.05 4.25 -0.06 C5.43 -0.08 5.43 -0.08 6.64 -0.1 C8.91 -0 10.83 0.37 13 1 C13 1.99 13 2.98 13 4 C8.71 3.01 4.42 2.02 0 1 C0 0.67 0 0.34 0 0 Z " fill="#EEEEEE" transform="translate(92,54)"/>
<path d="M0 0 C1 2 1 2 0.5 4.94 C-0.25 8.03 -0.25 8.03 1 11 C-0.32 11 -1.64 11 -3 11 C-4 8 -4 8 -3.22 5.96 C-2.84 5.25 -2.46 4.54 -2.06 3.81 C-1.68 3.1 -1.3 2.38 -0.91 1.64 C-0.61 1.1 -0.31 0.56 0 0 Z " fill="#A6B3BC" transform="translate(56,159)"/>
<path d="M0 0 C2.38 0.24 2.38 0.24 5.12 0.88 C6.04 1.08 6.95 1.28 7.88 1.49 C8.58 1.66 9.28 1.83 10 2 C9.67 2.66 9.34 3.32 9 4 C5.32 3.4 1.65 2.75 -2 2 C-1.34 1.34 -0.68 0.68 0 0 Z " fill="#8A969E" transform="translate(105,182)"/>
<path d="M0 0 C0.33 0 0.66 0 1 0 C1 3.3 1 6.6 1 10 C-0.32 10 -1.64 10 -3 10 C-2.01 6.7 -1.02 3.4 0 0 Z " fill="#D0D5D9" transform="translate(52,159)"/>
<path d="M0 0 C0.66 0.33 1.32 0.66 2 1 C1.34 3.97 0.68 6.94 0 10 C-0.66 10 -1.32 10 -2 10 C-1.12 2.25 -1.12 2.25 0 0 Z " fill="#F8F8F8" transform="translate(77,66)"/>
</svg>
