<svg version="1.1" id="Layer_1" xmlns="http://www.w3.org/2000/svg" xmlns:xlink="http://www.w3.org/1999/xlink" x="0px" y="0px"
	 width="100%" viewBox="0 0 512 512" enable-background="new 0 0 512 512" xml:space="preserve">
<path fill="#000000" opacity="1.000000" stroke="none" 
	d="
M278.000000,513.000000 
	C185.355820,513.000000 93.211639,513.000000 1.033728,513.000000 
	C1.033728,342.397461 1.033728,171.794907 1.033728,1.096182 
	C171.560867,1.096182 342.121796,1.096182 512.841370,1.096182 
	C512.841370,171.666550 512.841370,342.333252 512.841370,513.000000 
	C434.794891,513.000000 356.647430,513.000000 278.000000,513.000000 
M98.706894,51.038918 
	C82.530220,53.385941 69.714027,61.140770 60.248142,74.552605 
	C52.060604,86.153198 50.053707,99.371155 50.041382,113.023979 
	C49.962578,200.353561 49.961090,287.683258 50.044716,375.012848 
	C50.056980,387.823486 50.250580,400.660187 51.086525,413.437286 
	C52.172916,430.042419 60.188728,443.063904 73.444000,452.976105 
	C85.264091,461.815094 98.974930,463.959259 113.170372,463.969543 
	C201.499924,464.033569 289.829590,464.037689 378.159119,463.958862 
	C389.803070,463.948456 401.466400,463.672760 413.085419,462.950897 
	C429.721741,461.917328 442.769775,454.006287 452.763824,440.831207 
	C461.679901,429.077209 463.957947,415.391754 463.967804,401.177216 
	C464.028809,313.181000 464.036133,225.184647 463.955444,137.188431 
	C463.944336,125.044403 463.700531,112.878670 462.936218,100.762611 
	C461.887115,84.131256 453.913361,71.093391 440.706940,61.146835 
	C428.933167,52.279316 415.252319,50.026127 401.023834,50.019230 
	C314.694153,49.977371 228.364410,49.952724 142.034821,50.043358 
	C127.891121,50.058205 113.748039,50.672821 98.706894,51.038918 
z"/>
<path fill="#181414" opacity="1.000000" stroke="none" 
	d="
M99.155785,51.024582 
	C113.748039,50.672821 127.891121,50.058205 142.034821,50.043358 
	C228.364410,49.952724 314.694153,49.977371 401.023834,50.019230 
	C415.252319,50.026127 428.933167,52.279316 440.706940,61.146835 
	C453.913361,71.093391 461.887115,84.131256 462.936218,100.762611 
	C463.700531,112.878670 463.944336,125.044403 463.955444,137.188431 
	C464.036133,225.184647 464.028809,313.181000 463.967804,401.177216 
	C463.957947,415.391754 461.679901,429.077209 452.763824,440.831207 
	C442.769775,454.006287 429.721741,461.917328 413.085419,462.950897 
	C401.466400,463.672760 389.803070,463.948456 378.159119,463.958862 
	C289.829590,464.037689 201.499924,464.033569 113.170372,463.969543 
	C98.974930,463.959259 85.264091,461.815094 73.444000,452.976105 
	C60.188728,443.063904 52.172916,430.042419 51.086525,413.437286 
	C50.250580,400.660187 50.056980,387.823486 50.044716,375.012848 
	C49.961090,287.683258 49.962578,200.353561 50.041382,113.023979 
	C50.053707,99.371155 52.060604,86.153198 60.248142,74.552605 
	C69.714027,61.140770 82.530220,53.385941 99.155785,51.024582 
M175.465881,368.034271 
	C206.144592,389.967285 240.120895,398.411682 277.519928,393.187012 
	C357.511353,382.012207 411.155945,300.906219 390.372375,222.469833 
	C370.132874,146.086792 292.030792,102.457932 216.386047,125.278786 
	C152.187439,144.646515 110.466431,210.636108 120.632607,276.490417 
	C126.456749,314.218018 144.669800,344.466919 175.465881,368.034271 
z"/>
<path fill="#65D26E" opacity="1.000000" stroke="none" 
	d="
M175.174225,367.829407 
	C144.669800,344.466919 126.456749,314.218018 120.632607,276.490417 
	C110.466431,210.636108 152.187439,144.646515 216.386047,125.278786 
	C292.030792,102.457932 370.132874,146.086792 390.372375,222.469833 
	C411.155945,300.906219 357.511353,382.012207 277.519928,393.187012 
	C240.120895,398.411682 206.144592,389.967285 175.174225,367.829407 
M193.236633,221.722275 
	C242.244980,213.466080 289.461975,217.776550 334.022827,241.470276 
	C336.913605,243.007370 340.742554,243.897781 343.934235,243.495438 
	C349.016357,242.854828 351.953430,239.015228 352.788574,233.926544 
	C353.577087,229.121994 350.998047,224.800827 345.691620,221.870743 
	C312.917786,203.773804 277.661926,195.343185 240.364853,194.805511 
	C216.742950,194.465012 193.467682,196.968033 170.672058,203.269836 
	C163.543640,205.240448 160.146851,211.294937 162.025635,217.813034 
	C163.789185,223.931305 169.759277,226.910965 176.784836,225.282562 
	C181.970444,224.080597 187.185471,223.005539 193.236633,221.722275 
M288.246521,268.146851 
	C297.269653,272.357697 306.360718,276.430542 315.291901,280.828094 
	C321.197113,283.735718 326.421265,282.974396 329.249512,278.242188 
	C332.085388,273.497223 330.402405,268.149445 324.797638,264.837341 
	C320.650269,262.386505 316.427948,260.030670 312.093292,257.933716 
	C278.842255,241.848083 243.729233,237.884277 207.481323,242.619431 
	C197.470932,243.927124 187.579239,246.425232 177.778458,248.942993 
	C172.436615,250.315292 170.175583,255.460144 171.761902,260.332458 
	C173.365234,265.257050 177.932144,267.707428 183.239594,266.466644 
	C184.372101,266.201843 185.477478,265.822510 186.607635,265.546112 
	C220.447983,257.269867 254.100021,257.000397 288.246521,268.146851 
M211.380585,284.942017 
	C202.404495,286.633942 193.376694,288.096405 184.471558,290.103241 
	C179.060303,291.322723 176.753662,295.463837 178.031754,300.120361 
	C179.207657,304.404449 183.224121,306.382080 188.390640,305.213226 
	C189.364197,304.992950 190.329407,304.736145 191.301605,304.509644 
	C217.138321,298.491211 243.157532,297.167633 268.867432,304.212891 
	C280.279388,307.340149 291.020691,312.986053 301.956360,317.741791 
	C305.864746,319.441498 309.380066,319.931274 312.453796,316.650269 
	C315.149902,313.772400 315.482147,310.290924 313.173065,307.062256 
	C312.066956,305.515594 310.286499,304.326752 308.598938,303.338928 
	C278.680298,285.824738 246.238663,281.383331 211.380585,284.942017 
z"/>
<path fill="#191615" opacity="1.000000" stroke="none" 
	d="
M192.812012,221.798096 
	C187.185471,223.005539 181.970444,224.080597 176.784836,225.282562 
	C169.759277,226.910965 163.789185,223.931305 162.025635,217.813034 
	C160.146851,211.294937 163.543640,205.240448 170.672058,203.269836 
	C193.467682,196.968033 216.742950,194.465012 240.364853,194.805511 
	C277.661926,195.343185 312.917786,203.773804 345.691620,221.870743 
	C350.998047,224.800827 353.577087,229.121994 352.788574,233.926544 
	C351.953430,239.015228 349.016357,242.854828 343.934235,243.495438 
	C340.742554,243.897781 336.913605,243.007370 334.022827,241.470276 
	C289.461975,217.776550 242.244980,213.466080 192.812012,221.798096 
z"/>
<path fill="#191715" opacity="1.000000" stroke="none" 
	d="
M287.866211,268.041260 
	C254.100021,257.000397 220.447983,257.269867 186.607635,265.546112 
	C185.477478,265.822510 184.372101,266.201843 183.239594,266.466644 
	C177.932144,267.707428 173.365234,265.257050 171.761902,260.332458 
	C170.175583,255.460144 172.436615,250.315292 177.778458,248.942993 
	C187.579239,246.425232 197.470932,243.927124 207.481323,242.619431 
	C243.729233,237.884277 278.842255,241.848083 312.093292,257.933716 
	C316.427948,260.030670 320.650269,262.386505 324.797638,264.837341 
	C330.402405,268.149445 332.085388,273.497223 329.249512,278.242188 
	C326.421265,282.974396 321.197113,283.735718 315.291901,280.828094 
	C306.360718,276.430542 297.269653,272.357697 287.866211,268.041260 
z"/>
<path fill="#191716" opacity="1.000000" stroke="none" 
	d="
M211.832108,284.909912 
	C246.238663,281.383331 278.680298,285.824738 308.598938,303.338928 
	C310.286499,304.326752 312.066956,305.515594 313.173065,307.062256 
	C315.482147,310.290924 315.149902,313.772400 312.453796,316.650269 
	C309.380066,319.931274 305.864746,319.441498 301.956360,317.741791 
	C291.020691,312.986053 280.279388,307.340149 268.867432,304.212891 
	C243.157532,297.167633 217.138321,298.491211 191.301605,304.509644 
	C190.329407,304.736145 189.364197,304.992950 188.390640,305.213226 
	C183.224121,306.382080 179.207657,304.404449 178.031754,300.120361 
	C176.753662,295.463837 179.060303,291.322723 184.471558,290.103241 
	C193.376694,288.096405 202.404495,286.633942 211.832108,284.909912 
z"/>
</svg>